<?xml version="1.0" encoding="UTF-8"?>
<svg width="201px" height="55px" viewBox="0 0 201 55" version="1.1" xmlns="http://www.w3.org/2000/svg" xmlns:xlink="http://www.w3.org/1999/xlink">
    <!-- Generator: Sketch 45.2 (43514) - http://www.bohemiancoding.com/sketch -->
    <title>Logo</title>
    <desc>Created with Sketch.</desc>
    <defs/>
    <g id="Symbols" stroke="none" stroke-width="1" fill="none" fill-rule="evenodd">
        <g id="hader" transform="translate(-862.000000, -16.000000)" fill="#FFFFFF">
            <g id="Logo" transform="translate(862.000000, 16.000000)">
                <path d="M38.7604375,28.0747549 C38.5628955,28.3774509 37.1311382,32.0989289 34.5715345,32.3040895 L30.1209306,32.6639613 L35.4005354,19.629539 L42.3668449,19.0712332 C40.756118,23.3611069 39.1386375,27.4592733 38.7604375,28.0747549 L38.7604375,28.0747549 Z M55.1564216,18.0336589 L60.3583604,17.6166112 C59.3064915,19.1603603 57.792003,21.3952651 53.5997233,22.5186033 L55.1564216,18.0336589 Z M191.308431,6.28569416 L192.9276,3.50089176 L177.407892,4.75371651 L162.359245,18.0504753 L164.829364,11.5929625 L161.378289,11.8149395 L161.263478,12.095774 C160.356811,12.9853637 155.48242,17.773004 151.712239,20.5359451 C154.204307,13.1434382 156.799367,10.225786 157.569274,9.50772398 L168.093028,8.65681214 L169.335685,5.40451272 L156.161154,6.47067499 L155.821787,6.67079062 C155.416573,6.91294735 152.262655,9.03518203 148.990549,18.0740183 L139.633476,24.0875771 L134.716875,18.8273948 C139.044226,14.2835928 143.910175,10.3821788 148.705211,7.08111175 L142.920777,7.55029041 C139.245145,10.3855421 135.453015,13.701744 131.644,17.6367909 L135.123778,8.16745375 L131.405937,8.46846802 L125.297331,25.0528407 L117.861648,25.6548693 L122.160297,15.1227332 L118.165559,15.4439272 C118.106465,15.4910132 112.615811,20.984944 108.465741,24.0287196 C110.959498,16.6345311 113.551181,13.7185605 114.3194,13.0004985 L124.844842,12.1495866 L126.08581,8.89728722 L112.912968,9.96176785 L112.573601,10.1652468 C112.100851,10.447763 107.873115,13.3015128 104.080985,26.7664359 L97.0218138,27.3398765 C101.73243,22.7170373 103.344845,15.8290236 103.451214,15.4287924 L104.070854,13.1299851 L101.688532,13.3116026 C101.659829,13.3149659 100.310803,13.4158645 98.7541049,13.5369429 C105.345591,9.03518203 108.058839,2.94090432 108.198975,2.5995306 L109.245779,0.0602482163 L88.2472355,1.75702697 L86.9860059,5.23802997 L103.642003,3.89439644 C101.599047,7.04411558 97.2328629,12.4421927 89.5760007,14.2768663 L88.4295819,17.7612325 C91.5531089,17.5073043 96.8563512,17.0633503 99.3855639,16.8699612 C98.2036888,20.5157653 95.566419,27.4575916 87.8099417,28.0814815 L77.8653071,28.8853073 L84.3217218,12.2824365 L80.3894546,12.5985856 L77.7504964,19.5118239 L70.7352236,21.4978454 L74.1964292,13.0997155 L70.2658503,13.4158645 L63.5865677,29.9632411 L59.2794773,30.3062965 L60.8159149,26.8252935 L56.9815744,27.1330343 L55.450202,30.6190823 L50.3495668,31.0294034 L52.3469357,26.1021866 C62.1733828,23.5578593 65.1770339,16.7505645 65.3374312,16.4613218 L66.5733349,13.730332 L52.7268241,14.8469436 L49.4969284,23.5830839 C47.5265738,24.0724423 46.032346,24.3633667 43.8897753,24.5601191 C44.9213834,21.9283463 45.985071,19.0712332 46.4713282,17.7561876 L47.3847488,15.2791261 L33.0435389,16.4360971 L26.3473723,32.9700205 L20.3873451,33.449289 C22.8118774,30.3920603 23.8232248,26.8454732 23.8890722,26.6218146 L24.2757142,25.2983608 L23.0499409,24.6559728 C22.384714,24.3078725 21.1353032,23.6469864 19.9432978,23.0012351 C20.0834344,22.9491042 20.2168174,22.8969732 20.3552657,22.8381157 C26.1228161,20.4535445 28.1471992,10.0004457 28.3599368,8.81656831 L28.7448904,6.66406405 L9.0092649,8.25826252 L7.75141214,11.7426288 L24.5272847,10.3855421 C23.6358132,13.6630662 21.7718274,18.6003729 19.0585799,19.723711 C16.3807886,20.8319144 14.2331528,21.428898 12.408,21.797178 L15.0469582,15.0756471 L11.2936606,15.378343 L2.27426533,38.3731426 L6.02587452,38.068765 L10.9694891,25.4665252 C12.1530526,25.2949975 13.7249465,25.0192079 15.6716636,24.4709919 C16.6948297,25.0965635 18.8019441,26.2249466 20.1864264,26.959825 C19.2814477,29.2266811 17.3583681,32.7749498 14.5961572,33.9201493 L11.1585892,34.195939 L9.87203371,37.7576609 L34.8551845,35.7413698 C38.8668062,35.4168125 41.4973225,30.0658214 41.5817421,29.9413797 C41.757335,29.67568 42.0460502,29.0702882 42.3955475,28.2546908 C44.9956727,27.9015456 46.8968032,27.4895428 48.1766051,27.1548957 L45.314779,34.8955028 L65.8962893,33.2340386 L69.1008592,25.4631619 L76.2528918,23.4418258 L72.7309041,32.6807777 L105.323642,30.049005 C108.551849,28.1739719 112.723868,24.5752539 115.61102,21.9434811 L112.652956,29.4570663 L124.014152,28.5405703 L127.73537,28.2580541 C128.853086,25.8465767 130.024831,24.2776029 130.958512,23.1122236 C131.377234,22.5825058 131.816216,22.0662411 132.25351,21.551658 L138.085219,27.403779 L140.548585,27.205345 L147.570611,22.4412477 C147.460865,22.8095277 147.352808,23.186216 147.244751,23.5713124 L146.307693,26.7395296 L148.95847,26.5259609 C152.154598,24.1884758 156.032837,20.8420043 158.779852,18.4002572 L155.793085,25.9760633 L158.879467,25.7254983 L178.807569,8.02283237 L186.538721,7.39726081 C184.235753,11.0178403 178.777178,17.9159438 171.545791,21.2758684 L170.368981,24.7955492 L182.481512,23.8201957 C181.279377,28.2008782 177.397761,38.6337974 165.877856,48.5723132 C165.771487,42.7470985 167.993412,33.3416638 173.87915,28.0495303 L171.807492,28.2126497 L171.832818,28.1907884 L1.28655544,41.9617708 L0,45.5251743 L166.948297,32.041753 C163.066682,38.8070067 162.295086,47.07565 162.860698,52.1895293 L163.390853,54.8986577 L165.570568,53.1951524 C183.746119,38.9667629 186.260136,22.765805 186.358063,22.0830575 L186.550539,20.1844815 L178.741722,20.810053 C186.621452,15.0268795 191.060237,6.70946843 191.308431,6.28569416 L191.308431,6.28569416 Z" id="Fill-3"/>
                <path d="M197.086112,6.21994188 L197.401841,6.21994188 C197.766534,6.21994188 198.060314,6.09886351 198.060314,5.80625746 C198.060314,5.54560265 197.871214,5.37071168 197.454181,5.37071168 C197.278588,5.37071168 197.158713,5.3908914 197.086112,5.40770784 L197.086112,6.21994188 Z M197.069228,7.83263843 L196.410754,7.83263843 L196.410754,4.99066014 C196.670767,4.93852918 197.037148,4.9048963 197.506521,4.9048963 C198.04343,4.9048963 198.289936,4.99066014 198.499297,5.11173851 C198.654629,5.23281687 198.776193,5.45815716 198.776193,5.73562842 C198.776193,6.04841419 198.531376,6.29057092 198.183567,6.39483285 L198.183567,6.43014737 C198.462152,6.5344093 198.619172,6.74293315 198.703592,7.12298468 C198.793077,7.55348554 198.843729,7.72837651 198.912953,7.83263843 L198.200451,7.83263843 C198.112655,7.72837651 198.060314,7.46940334 197.974206,7.13980112 C197.921866,6.82701535 197.74965,6.68912054 197.384957,6.68912054 L197.069228,6.68912054 L197.069228,7.83263843 Z M195.313299,6.34270189 C195.313299,7.60729814 196.253734,8.61292123 197.541978,8.61292123 C198.793077,8.61292123 199.716628,7.60729814 199.716628,6.36119997 C199.716628,5.09492207 198.793077,4.07248254 197.523405,4.07248254 C196.253734,4.07248254 195.313299,5.09492207 195.313299,6.34270189 L195.313299,6.34270189 Z M200.446014,6.34270189 C200.446014,7.95539844 199.174654,9.21831306 197.523405,9.21831306 C195.885664,9.21831306 194.583913,7.95539844 194.583913,6.34270189 C194.583913,4.7670015 195.885664,3.50072359 197.523405,3.50072359 C199.174654,3.50072359 200.446014,4.7670015 200.446014,6.34270189 L200.446014,6.34270189 Z" id="Fill-5"/>
            </g>
        </g>
    </g>
</svg>